<svg width="175" height="97" viewBox="0 0 175 97" fill="none" xmlns="http://www.w3.org/2000/svg">
<g clip-path="url(#clip0_15_270)">
<path d="M138.172 55.7704C138.192 56.4004 138.211 57.1782 138.241 58.1134C138.3 60.4368 138.389 62.0021 138.497 62.8389L138.645 64.857C137.758 64.1088 137.294 63.656 137.255 63.4886C137.196 63.213 136.614 62.6026 135.49 61.6378C134.376 60.6829 133.587 60.1316 133.123 59.9839C132.995 59.9544 132.897 59.915 132.828 59.8658C132.364 59.7279 131.871 59.8165 131.329 60.1414C131.22 60.2202 131.142 60.2596 131.082 60.2694C130.54 60.5943 129.889 61.3622 129.14 62.5829C128.391 63.8036 127.947 64.8177 127.809 65.6348C127.582 66.8752 127.227 66.9343 126.754 65.8317C126.389 64.985 126.103 64.3648 125.896 63.9415C125.699 63.5772 125.245 62.0119 124.545 59.2455C123.815 56.3709 123.056 54.3527 122.267 53.191C121.646 52.2853 121.193 51.7143 120.897 51.4781C120.601 51.2516 120.226 51.1729 119.753 51.2615C119.694 51.2713 119.595 51.3009 119.457 51.3599C119.319 51.419 119.181 51.4485 119.073 51.4781C118.491 51.6356 118.116 51.7832 117.929 51.9014C117.741 52.0195 117.574 52.2459 117.436 52.5905C117.288 52.9252 117.15 53.2009 117.012 53.3879C116.46 54.2247 116.302 55.6719 116.548 57.7295C116.854 60.0627 117.199 62.1596 117.594 64.0104C118.363 67.6726 119.773 72.0437 121.814 77.1235C122.504 78.9251 123.441 80.0967 124.653 80.6086L125.758 81.091L127.05 79.8308C128.933 78.0686 130.658 75.2235 132.216 71.3053C132.729 69.9664 133.074 69.2773 133.242 69.2478C133.419 69.2182 133.607 69.3856 133.804 69.74C134.188 70.4095 135.234 71.7385 136.929 73.7271C138.635 75.7158 139.73 76.8971 140.233 77.2614C140.667 77.5764 141.288 77.8521 142.096 78.0686C142.905 78.2951 143.487 78.364 143.842 78.3049C144.137 78.2557 144.522 77.8225 144.995 77.0251C145.468 76.2277 145.715 75.5779 145.725 75.066C145.764 74.6624 145.853 74.3572 145.991 74.1603C146.1 74.0815 146.228 73.5499 146.385 72.5556C146.75 69.3659 146.918 66.9736 146.898 65.3886C146.967 63.9612 147.056 62.3663 147.174 60.614C147.293 58.8616 147.411 57.2372 147.519 55.7408C148.022 47.4122 147.983 41.7121 147.401 38.6406L147.224 37.8234C146.928 36.4058 146.563 35.4213 146.149 34.87C145.725 34.3187 145.035 33.9052 144.058 33.6296C142.767 33.2949 141.909 33.3146 141.505 33.669C140.667 34.3286 139.927 35.4804 139.296 37.0949C138.655 38.7193 138.359 40.1763 138.389 41.4758C138.409 41.5841 138.389 41.8992 138.31 42.4308C138.251 42.7261 138.172 44.1044 138.083 46.5655C138.123 47.0676 138.123 48.2884 138.083 50.2278C138.044 51.6356 138.034 52.6791 138.063 53.3584L138.172 55.7802V55.7704Z" fill="white"/>
<path d="M1.24237 72.083C1.54804 74.239 2.05091 77.3795 2.76085 81.4946C3.35247 85.2159 3.8159 87.1257 4.15115 87.2537C5.09774 87.5392 6.67538 87.4408 8.87422 86.9485C12.207 86.2102 13.9128 85.8361 13.972 85.8164C17.9654 84.6843 21.4658 83.0599 24.483 80.9433C25.3113 80.3624 26.3269 79.437 27.5496 78.1572C28.7624 76.8872 29.6104 75.8732 30.0935 75.1349C30.4682 74.554 31.0007 73.5991 31.6909 72.2799C32.3811 70.9607 32.7459 70.2027 32.7854 70.0255L32.9333 69.6612C32.9629 69.4348 33.0023 69.2576 33.0516 69.1099C33.5545 68.0565 33.6531 66.5011 33.3671 64.4238C33.2291 63.4689 33.0121 62.6026 32.7065 61.8248C31.7698 59.3243 30.6555 57.6605 29.3737 56.8139C29.3047 56.7942 29.0976 56.5874 28.7525 56.2133C28.4074 55.8392 28.0623 55.4848 27.727 55.1501C27.3918 54.8154 27.1552 54.6677 27.027 54.6973C26.8988 54.7366 26.6523 54.6087 26.2973 54.3232C25.7747 53.8211 24.0393 52.9449 21.1108 51.6848C18.1724 50.4246 15.7172 49.45 13.7353 48.7609C12.1675 48.2588 10.5603 47.8847 8.9038 47.6386C7.24727 47.4023 6.14292 47.3531 5.58089 47.5205C5.39354 47.5697 5.0583 47.5205 4.585 47.3531C4.30892 47.2153 3.7666 47.2842 2.95806 47.5598C0.80852 48.4262 -0.138065 49.7749 0.118302 51.606C0.216904 52.3148 0.256345 53.3781 0.226765 54.8154C0.197184 56.2527 0.197184 57.2273 0.197184 57.7393C0.246485 59.0191 0.216904 59.7181 0.0985811 59.8362C-0.207087 60.4466 0.177463 64.5223 1.24237 72.0732M9.88982 51.9309C9.94899 51.8718 10.0081 51.8324 10.0673 51.8128C10.442 51.7045 11.1618 51.9604 12.2168 52.5609C13.2719 53.1713 14.396 53.8506 15.5693 54.6185C16.7526 55.3864 17.5414 55.8392 17.9555 55.9771C18.1626 56.046 19.4148 57.0994 21.7123 59.1175C23.8618 61.0077 25.2225 64.0104 25.8043 68.1254L25.8733 68.6275C26.0015 69.9763 26.0409 70.8229 25.9916 71.1872C25.9423 71.5514 25.7057 72.024 25.2718 72.6245C24.6704 73.4416 24.2267 73.9535 23.9308 74.1701C23.5266 74.5048 23.211 74.81 22.9843 75.0857C22.3828 75.8634 20.4798 77.094 17.2752 78.7873C15.5891 79.7028 14.2776 80.2935 13.3409 80.5593L12.2168 80.8744V79.5158C11.9999 71.9353 11.2998 64.0399 10.1462 55.8196C9.79122 53.3288 9.71234 52.0392 9.88982 51.9407V51.9309Z" fill="white"/>
<path d="M72.9364 74.367C72.7688 74.367 72.3744 74.4851 71.7335 74.7017C71.1813 74.9183 70.5305 75.3416 69.7713 75.9618C69.0219 76.5919 68.6571 77.0349 68.6867 77.3007C68.7162 77.5665 68.2134 78.551 67.178 80.2541C66.1427 81.9474 65.2553 83.1977 64.5256 84.005C63.51 85.1962 62.6325 85.8164 61.8929 85.8361C61.3999 85.8558 60.8083 85.7475 60.1181 85.5013C59.1715 85.2257 58.4714 84.5267 58.008 83.3847C57.7911 82.9713 57.5939 82.6858 57.4164 82.5381C57.2389 82.4692 56.8346 81.849 56.2036 80.6774C54.2907 77.1333 53.1666 73.9535 52.8412 71.1477C52.7229 70.1534 53.0286 68.5389 53.7582 66.314C53.985 65.4575 54.2118 64.2368 54.4386 62.6419C54.5766 61.7165 54.6949 60.9782 54.7935 60.4269C54.8921 59.8854 54.9809 59.3636 55.04 58.8517C55.1091 58.3496 55.1781 57.9361 55.2668 57.6014C55.3556 57.2667 55.4147 56.9812 55.4739 56.7252C55.5232 56.4693 55.6415 56.1936 55.8091 55.8786C55.9768 55.5636 56.1148 55.3076 56.2134 55.1107C56.312 54.9138 56.4994 54.5692 56.7755 54.077C57.0515 53.5848 57.2882 53.1614 57.4953 52.807C58.501 50.8381 59.3293 49.8438 59.9899 49.8142C60.0688 49.8142 60.1181 49.8536 60.1279 49.9225C60.1279 49.9619 60.3942 50.4148 60.9069 51.2811C61.4394 52.2656 62.1493 53.0532 63.0466 53.6537C63.9439 54.2542 64.8412 54.5397 65.7483 54.5003C66.3202 54.4806 66.902 54.2936 67.4837 53.9392C68.0655 53.5848 68.45 53.1811 68.6374 52.7086C68.9036 52.1967 68.9627 51.2516 68.7951 49.8733C68.6768 48.9184 68.4993 48.3868 68.2331 48.2785C67.888 48.1406 67.7006 47.9536 67.671 47.7173C67.6513 47.5303 67.3161 47.2054 66.685 46.7427C66.054 46.2898 65.5215 45.965 65.0778 45.7878C64.0326 45.3644 62.2578 45.0297 59.7434 44.7836C59.5758 44.7541 59.28 44.7442 58.8757 44.7639C58.0474 44.7934 56.5585 45.0888 54.3893 45.6302C54.0737 45.7188 53.5511 45.9157 52.8412 46.2111C52.1313 46.5064 51.5002 46.8018 50.9579 47.0971L50.1395 47.5303C50.1395 47.609 49.7747 47.9831 49.0351 48.6723C48.2069 49.4008 47.6251 50.0407 47.28 50.592C47.073 50.9464 46.7771 51.2811 46.4025 51.5764C46.0278 51.8816 45.7714 52.1868 45.6432 52.5019C43.9965 55.3371 43.1486 56.9123 43.0993 57.2273C43.0401 57.3848 42.8823 57.8574 42.6457 58.6351C42.409 59.4128 42.2809 60.0724 42.2611 60.6139C42.0442 65.0539 42.1724 69.2674 42.6555 73.2644C43.9275 83.2371 47.6547 89.1833 53.8371 91.103C54.1822 91.2408 54.9316 91.29 56.0852 91.2507C59.4574 91.1227 62.3366 90.6206 64.713 89.7641C67.4936 88.8092 69.8009 86.9879 71.6349 84.2904C73.2618 81.9966 74.169 80.5691 74.3563 80.0178C74.3563 79.9785 74.4549 79.8406 74.6817 79.6044C75.1353 79.2795 75.3522 78.3245 75.3325 76.7494L75.3719 74.9577L74.0901 74.6032C73.4886 74.4359 73.1041 74.3571 72.9463 74.3571" fill="white"/>
<path d="M102.113 89.5771C100.831 90.8273 99.6577 90.1087 98.5928 87.4309C96.6503 84.9008 94.7079 82.4495 92.8936 80.0966C91.9174 77.7929 90.1327 74.7509 87.5197 70.9607C85.528 68.0467 84.5321 66.5306 84.5123 66.4321C84.5123 66.3829 84.9561 65.9694 85.8731 65.1917C86.5929 64.6404 87.7465 63.459 89.3439 61.6476C90.9412 59.8362 92.1146 58.3595 92.8739 57.2372C93.4458 56.3905 93.8697 55.7605 94.1557 55.3371C94.4416 54.9138 94.6881 54.5102 94.8854 54.1262C95.0924 53.7423 95.2403 53.4568 95.3291 53.2993C95.4178 53.1319 95.5756 52.7874 95.7925 52.2754C96.0094 51.7537 96.2263 51.2516 96.4433 50.7593C96.9757 49.6075 97.1433 48.308 96.9659 46.8707C96.7884 45.4826 96.3348 44.2815 95.5854 43.2577C94.9051 42.3421 94.067 41.525 93.0513 40.826C92.0357 40.127 91.1384 39.7628 90.3496 39.7431C90.2905 39.7431 90.1228 39.7529 89.8468 39.7628C89.5707 39.7628 89.3143 39.7825 89.0974 39.8022C88.8804 39.8219 88.5748 39.8711 88.1902 39.94C87.8057 40.0089 87.5296 40.0483 87.362 40.068C85.3308 40.4421 83.6249 41.1509 82.2445 42.1846C81.574 42.6768 80.6175 43.6613 79.3752 45.1577C78.1328 46.6443 77.4031 47.6681 77.1862 48.2096C77.058 48.5344 76.9594 48.7412 76.8805 48.8298C76.8115 48.9184 76.7129 48.9381 76.5946 48.8987C76.4762 48.8593 76.2889 48.692 76.0325 48.4163C75.7071 48.0324 75.1845 47.8847 74.4647 47.9634C73.0251 48.121 72.187 48.6033 71.9504 49.4106C71.6546 50.2277 71.625 51.5371 71.8518 53.3387C71.9307 53.9589 72.0687 54.6185 72.2659 55.3273C72.4138 55.6226 72.8181 57.0895 73.4886 59.7377C74.1591 62.3761 74.5338 63.8824 74.6422 64.2368C75.007 65.3492 75.5099 68.4798 76.1508 73.6286C76.5354 76.7199 76.7129 78.5805 76.6833 79.2106C76.703 80.3033 76.703 82.1935 76.6833 84.891C76.6537 87.5786 76.634 89.0848 76.6143 89.3999C76.6044 89.7641 76.6439 90.2859 76.7227 90.9553C76.9988 93.1704 77.8665 94.5093 79.3258 94.9818C79.9076 95.1787 80.371 95.2575 80.7063 95.2279C81.15 95.1787 81.5937 94.8932 82.0276 94.3813C83.4474 92.7175 83.901 86.8205 83.2995 79.693C83.0826 77.1038 83.0136 75.8142 83.0629 75.8043C83.2108 75.7846 84.1377 77.3499 85.8533 80.4805C87.8254 84.3791 89.758 87.6475 91.3061 90.3548C91.6315 90.9553 91.947 91.546 92.2428 92.117C92.44 92.5009 92.6471 92.8357 92.8443 93.131L92.9823 93.3968C95.2699 97.7876 102.152 98.1124 105.939 94.9818C110.277 91.3885 105.032 86.2791 102.103 89.6361M82.1656 59.8559C81.9881 60.2398 81.7909 60.4465 81.5641 60.4662C81.288 60.4958 81.1007 60.1217 81.0021 59.3538C80.8838 58.3792 80.9232 57.1486 81.1303 55.662C81.3768 54.0179 81.574 52.9252 81.7318 52.3837C81.9388 51.7832 82.5896 50.7101 83.6841 49.1547C84.7786 47.5992 85.5181 46.723 85.8829 46.5261C86.4154 46.2603 86.9183 46.2603 87.4014 46.5261C87.7071 46.7033 87.8747 46.9494 87.9141 47.2546C87.9339 47.4121 87.9043 47.7173 87.8155 48.1702C87.7268 48.623 87.7071 48.9479 87.7268 49.1547C87.8451 50.0801 85.9914 53.6438 82.1557 59.8559H82.1656Z" fill="white"/>
<path d="M115.168 79.7717C113.511 78.8562 107.536 87.0371 107.299 71.5317C112.565 70.6161 113.886 70.6063 114.192 68.8638C114.734 67.0917 114.32 64.8668 112.525 64.5912C110.662 64.3155 109.804 65.0932 105.791 66.0876C105.741 64.8964 105.288 62.1201 104.43 57.7589C103.434 54.1164 103.059 52.0687 107.082 52.1376C116.962 52.3148 116.203 46.2603 111.165 46.1914C105.909 46.1126 97.1335 45.8665 97.7349 51.222C100.565 76.6706 103.316 86.8599 109.104 87.0765C111.579 87.1651 122.129 83.6407 115.178 79.7816" fill="white"/>
<path d="M138.487 83.6506C137.344 82.3708 135.796 81.9671 133.863 82.4397C132.473 82.7744 131.506 83.3257 130.964 84.0936C130.422 84.8615 130.343 85.6884 130.718 86.5941C130.905 87.047 131.102 87.3817 131.299 87.618C131.93 88.3859 132.837 88.7305 134.021 88.6615C135.608 88.5631 136.722 88.4351 137.373 88.2776C138.389 88.0315 139.03 87.7361 139.286 87.3916C139.74 86.7812 139.75 85.9346 139.286 84.8418C139.148 84.5169 138.882 84.1231 138.487 83.6506Z" fill="white"/>
<path d="M31.1289 80.5692C30.4386 81.0712 30.3302 81.6226 30.8133 82.2132C31.05 82.5086 31.2965 82.735 31.5528 82.8827C32.3515 83.3848 33.5052 83.6112 35.0237 83.562C37.045 83.493 38.4649 83.4143 39.2932 83.306C40.5849 83.1485 41.4033 82.9516 41.7385 82.7252C42.3203 82.3314 42.3203 81.7702 41.7385 81.0516C41.5709 80.835 41.2258 80.579 40.713 80.2738C39.2537 79.437 37.2915 79.1712 34.8166 79.4764C33.0516 79.693 31.8191 80.0572 31.1289 80.5593" fill="white"/>
<path fill-rule="evenodd" clip-rule="evenodd" d="M173.906 70.9509C176.035 72.7229 174.773 75.6764 172.535 72.7525C171.815 71.8074 172.19 71.0001 172.614 70.6359C173.067 70.2519 173.393 70.5276 173.906 70.9509Z" fill="white"/>
<path fill-rule="evenodd" clip-rule="evenodd" d="M171.243 70.7835C170.523 69.996 169.537 68.598 168.048 67.0032C167.605 66.5208 167.112 66.0285 166.56 65.5265C157.952 57.5621 141.189 43.8385 124.091 40.3338C123.105 40.1271 119.595 39.7924 118.609 39.6545C117.13 39.5462 115.779 34.8109 118.146 33.3244C120.522 31.828 127.976 35.8053 131.112 37.0457C132.364 37.5379 134.218 37.9416 135.48 38.5618C137.768 39.6841 140.381 41.7022 142.639 43.1494C153.14 49.9029 162.714 59.216 168.088 65.2508C169.735 67.1016 170.987 68.6472 171.756 69.7203C172.88 71.2856 172.643 72.2898 171.263 70.7835" fill="white"/>
<path d="M110.366 32.3005C110.445 33.3835 110.849 34.4172 111.559 35.3918C111.914 35.8742 112.22 36.2384 112.466 36.455C113.265 37.2032 114.014 37.3509 114.704 36.9177C115.621 36.327 116.243 35.8446 116.548 35.4705C117.041 34.8799 117.268 34.3286 117.248 33.8363C117.199 32.97 116.746 31.9461 115.868 30.7549C115.612 30.4005 115.237 30.0067 114.734 29.5539C113.334 28.343 112.17 28.3036 111.234 29.4456C110.563 30.2528 110.267 31.2078 110.356 32.2907" fill="white"/>
<path d="M142.895 21.7766C137.886 24.9859 131.496 28.8057 127.414 30.686C131.25 31.1979 134.307 31.257 137.432 31.4539C138.192 31.5031 139.188 31.9068 139.907 31.9363C149.561 32.399 155.161 30.4301 158.415 28.8746C162.073 26.6005 159.776 24.1885 156.936 22.702C153.307 20.8019 146.8 21.2056 142.895 21.7766ZM140.854 20.546C141.229 19.6304 161.698 5.81826 152.242 4.05606C147.717 3.52444 145.804 5.06022 141.288 7.65922C138.764 9.11624 136.239 11.7152 134.011 13.635C131.822 15.5252 129.061 17.6024 127.365 19.591C125.028 22.3279 124.022 24.9564 123.036 27.1321C129.377 23.5486 135.441 21.5009 140.844 20.546H140.854ZM122.76 30.1347C123.125 30.0067 123.638 30.1544 124.052 29.9969C126.803 28.9337 130.353 26.7974 134.267 24.5528C130.313 25.8818 126.103 27.8212 121.774 30.5187C121.547 30.686 121.262 30.7648 120.966 30.7352C120.345 30.6663 119.901 30.0953 119.97 29.4751C119.999 29.2585 120.039 29.0124 120.098 28.7466C121.005 24.6414 125.935 17.6319 132.532 11.922C139.158 6.19236 147.519 1.69332 155.299 2.60888C155.832 2.66795 156.374 2.7664 156.926 2.88454C157.952 3.11096 158.691 3.52444 159.164 4.08559C160.21 5.32603 159.894 6.97009 158.593 8.87012C157.547 10.3961 155.772 12.1779 153.554 14.078C151.345 15.9583 148.673 17.9666 145.814 19.9454C150.103 19.6796 153.8 20.1128 156.67 20.9594C160.288 22.0325 162.704 23.8046 163.473 25.7243C164.361 27.9197 163.355 30.1642 159.963 31.7886C154.777 34.2695 143.201 35.4312 122.938 32.3301C122.317 32.2415 121.893 31.6606 121.981 31.0404C122.05 30.6073 122.356 30.2627 122.75 30.1347H122.76Z" fill="white"/>
<path d="M119.99 29.9969C119.368 30.0756 118.796 29.6425 118.718 29.0222C118.639 28.402 119.073 27.831 119.694 27.7523C120.216 27.6834 120.256 26.6595 120.068 25.2812C119.644 22.1506 117.85 17.6811 116.943 15.4365C116.785 15.0427 116.568 13.4479 116.538 13.3691C113.571 3.04203 104.716 -3.29797 109.833 14.009C110.8 17.2873 112.792 21.0677 116.331 24.9564C116.982 25.675 117.524 26.5217 118.175 27.329C118.57 27.8212 118.481 28.53 117.998 28.9238C117.505 29.3176 116.795 29.229 116.4 28.7466C107.723 17.8879 104.46 9.60846 104.272 5.02082C104.184 2.94359 104.716 1.46688 105.672 0.679301C106.747 -0.206723 108.197 -0.236257 109.833 0.679301C112.437 2.14616 115.809 6.36955 118.727 13.7925C118.875 14.1567 118.954 14.3635 119.043 14.5899C119.99 16.9329 121.863 21.5796 122.317 24.9761C122.681 27.6538 122.188 29.7015 119.99 29.9969Z" fill="white"/>
</g>
<defs>
<clipPath id="clip0_15_270">
<rect width="175" height="97" fill="white"/>
</clipPath>
</defs>
</svg>
